<svg xmlns="http://www.w3.org/2000/svg" viewBox="0 0 100 100">
  <defs>
    <linearGradient id="grad" x1="0%" y1="0%" x2="100%" y2="100%">
      <stop offset="0%" style="stop-color:#2563EB;stop-opacity:1" />
      <stop offset="50%" style="stop-color:#3B82F6;stop-opacity:1" />
      <stop offset="100%" style="stop-color:#22D3EE;stop-opacity:1" />
    </linearGradient>
  </defs>
  <rect width="100" height="100" rx="22" fill="url(#grad)"/>
  
  <!-- S -->
  <path d="M15 30 Q15 20 25 20 L35 20 Q45 20 45 30 Q45 40 35 40 L25 40 Q15 40 15 50 Q15 60 25 60 L35 60 Q45 60 45 70" 
        stroke="white" stroke-width="4" fill="none" stroke-linecap="round"/>
  
  <!-- C -->
  <path d="M70 30 Q60 20 50 30 L50 50 Q50 60 60 60 Q70 60 70 50" 
        stroke="white" stroke-width="4" fill="none" stroke-linecap="round"/>
  
  <!-- Q with checkmark -->
  <circle cx="80" cy="45" r="10" stroke="white" stroke-width="3" fill="none"/>
  <path d="M76 45 L78 47 L84 41" stroke="white" stroke-width="2.5" fill="none" stroke-linecap="round" stroke-linejoin="round"/>
  <path d="M84 52 L88 56" stroke="white" stroke-width="2.5" stroke-linecap="round"/>
</svg>
